<svg width="97.16" height="97.16" xmlns="http://www.w3.org/2000/svg">
 <g>
  <title>Layer 1</title>
  <g id="svg_1">
   <g id="svg_2">
    <path fill="#ffffff" id="svg_3" d="m48.580002,0c-26.787003,0 -48.580002,21.792999 -48.580002,48.580002s21.792999,48.580002 48.580002,48.580002s48.580002,-21.793007 48.580002,-48.580002s-21.793007,-48.580002 -48.580002,-48.580002zm0,86.822998c-21.087002,0 -38.244001,-17.154999 -38.244001,-38.242996s17.157,-38.243002 38.244001,-38.243002s38.243996,17.155001 38.243996,38.243002s-17.156998,38.242996 -38.243996,38.242996z"/>
    <path fill="#ffffff" id="svg_4" d="m73.898003,47.080002h-21.832001v-26.250002c0,-2.209 -1.791,-4 -4,-4c-2.209003,0 -4,1.791 -4,4v30.250002c0,2.209 1.790997,4 4,4h25.832001c2.209,0 4,-1.791 4,-4s-1.791,-4 -4,-4z"/>
   </g>
  </g>
  <g id="svg_5"/>
  <g id="svg_6"/>
  <g id="svg_7"/>
  <g id="svg_8"/>
  <g id="svg_9"/>
  <g id="svg_10"/>
  <g id="svg_11"/>
  <g id="svg_12"/>
  <g id="svg_13"/>
  <g id="svg_14"/>
  <g id="svg_15"/>
  <g id="svg_16"/>
  <g id="svg_17"/>
  <g id="svg_18"/>
  <g id="svg_19"/>
 </g>
</svg>