<svg width="500.267" height="500.267" xmlns="http://www.w3.org/2000/svg">
 <g>
  <title>Layer 1</title>
  <g id="svg_1">
   <g id="svg_2">
    <ellipse fill="#ffffff" id="svg_3" ry="58.463" rx="225.715" cy="80.887" cx="231.39"/>
    <path fill="#ffffff" id="svg_4" d="m71.445,201.518997c45.101997,13.251999 101.903999,21.059998 159.945015,20.55101c128.078003,-1.123001 187.946991,-31.016006 187.949005,-31.018005c24.360992,-10.313004 38.243988,-21.742996 38.243988,-32.150009v-47.418991c0,-0.560005 -0.062012,-1.108002 -0.145996,-1.649002c-7.917999,13.170998 -27.503998,23.042007 -45.553009,29.712997v30.067001c0,4.141998 -3.356995,7.5 -7.5,7.5s-7.5,-3.358002 -7.5,-7.5v-25.067001c-4.524994,1.360001 -8.622986,2.46701 -12,3.324005v36.492996c0,5.522995 -4.47699,10 -10,10c-5.520996,0 -10,-4.477005 -10,-10v-32.175995c-37.458984,7.072998 -83.587982,11.25 -133.493988,11.25c-118.600006,0 -215.934014,-23.564011 -226.051004,-53.604004c-0.086,0.541 -0.145,1.090004 -0.145,1.649002v48.453003c0.00099,13.847 24.76799,29.390991 66.25099,41.582993z"/>
    <path fill="#ffffff" id="svg_5" d="m500.122009,238.917999c-7.917999,13.171005 -27.503998,23.041992 -45.553986,29.713013v30.065979c0,4.143005 -3.356018,7.5 -7.5,7.5c-4.143005,0 -7.5,-3.356995 -7.5,-7.5v-25.065979c-4.524017,1.358978 -8.622009,2.46698 -12,3.323975v36.492004c0,5.52301 -4.47702,10 -10,10c-5.521027,0 -10,-4.47699 -10,-10v-32.175995c-37.459015,7.072998 -83.588013,11.25 -133.494019,11.25c-118.599991,0 -215.934006,-23.563995 -226.050007,-53.603989c-0.085999,0.540985 -0.144997,1.089996 -0.144997,1.648987v48.453018c0,13.847992 24.768002,29.392975 66.249996,41.583984c45.102005,13.252014 101.904007,21.05899 159.945007,20.550995c128.076996,-1.122986 187.946014,-31.016998 187.947998,-31.018982c24.360992,-10.313019 38.244019,-21.743011 38.244019,-32.149017v-47.418991c0.002991,-0.559006 -0.058014,-1.108002 -0.144012,-1.649002z"/>
    <path fill="#ffffff" id="svg_6" d="m226.192993,419.187988c-49.906006,0 -96.035004,-4.177002 -133.494003,-11.25v32.177002c0,5.522003 -4.478996,10 -10,10c-5.523003,0 -10,-4.477997 -10,-10v-36.493011c-3.376999,-0.856995 -7.474998,-1.963989 -12,-3.323975v25.065979c0,4.143005 -3.356998,7.5 -7.5,7.5s-7.5,-3.356995 -7.5,-7.5v-30.065979c-18.049,-6.671021 -37.635,-16.542023 -45.553,-29.713013c-0.08599,0.540009 -0.14599,1.08902 -0.14599,1.647003v47.419006c0,10.406982 13.883,21.836975 38.243999,32.149994c0.001999,0.001984 59.870998,29.89502 187.948994,31.018005c58.041992,0.509979 114.844025,-7.299011 159.945007,-20.551025c41.481995,-12.189972 66.25,-27.733978 66.25,-41.582977v-48.451019c0,-0.560974 -0.05899,-1.108002 -0.144989,-1.648987c-10.117004,30.037018 -107.451019,53.602997 -226.050018,53.602997z"/>
    <path fill="#ffffff" id="svg_7" d="m238.841003,244.166c-58.020004,1.559006 -114.844002,-7.298996 -159.942993,-20.550995c-11.277,-3.314011 -21.309002,-6.878006 -29.952999,-10.585999c4.43,31.278 103.704998,56.283005 225.54501,56.283005c124.658997,0 225.714996,-26.175018 225.714996,-58.464005c0,-11.534012 -12.902008,-22.28801 -35.167999,-31.349014v1.498001c0,10.931 -15.306,22.991013 -41.990021,33.699005c-0.001007,0.001007 -58.712006,26.100006 -184.205994,29.470001z"/>
    <path fill="#ffffff" id="svg_8" d="m226.779007,396.084015c121.839981,0 221.115005,-25.006012 225.544998,-56.28302c-8.645996,3.708008 -18.677002,7.271027 -29.951019,10.586029c-45.103973,13.251984 -101.923981,22.108978 -159.944977,20.550995c-125.494019,-3.371002 -184.203018,-29.470001 -184.203018,-29.470001c-26.686001,-10.708008 -41.992001,-22.769012 -41.992001,-33.697998v-1.498016c-22.264,9.061005 -35.16999,19.813019 -35.16999,31.350006c-0.001,32.28598 101.054996,58.462006 225.716007,58.462006z"/>
   </g>
  </g>
  <g id="svg_9"/>
  <g id="svg_10"/>
  <g id="svg_11"/>
  <g id="svg_12"/>
  <g id="svg_13"/>
  <g id="svg_14"/>
  <g id="svg_15"/>
  <g id="svg_16"/>
  <g id="svg_17"/>
  <g id="svg_18"/>
  <g id="svg_19"/>
  <g id="svg_20"/>
  <g id="svg_21"/>
  <g id="svg_22"/>
  <g id="svg_23"/>
 </g>
</svg>